# Blender v2.90.0 OBJ File: 'block.pickaxe.blend'
# www.blender.org
o pickaxe_Cylinder.004
v 0.000043 -0.036295 -0.107024
v -0.013081 -0.011625 -0.097911
v 0.000043 -0.010356 -0.107472
v -0.013294 -0.038091 -0.097960
v -0.008003 -0.010968 -0.082582
v -0.008801 -0.037326 -0.081364
v 0.007913 -0.007705 -0.082851
v 0.013084 -0.039654 -0.097892
v 0.008581 -0.040524 -0.081830
v 0.012947 -0.009396 -0.097860
v -0.014267 0.208077 -0.098186
v 0.008146 0.208113 -0.082495
v 0.013057 0.208702 -0.097885
v 0.013372 0.184676 -0.097959
v 0.000043 0.210746 -0.107342
v 0.013703 0.153863 -0.098035
v 0.000043 0.179195 -0.106748
v 0.014353 0.126276 -0.098186
v 0.000043 0.155361 -0.107799
v 0.013246 0.099037 -0.097929
v 0.000043 0.125727 -0.107477
v 0.000043 0.071742 -0.108583
v 0.000043 0.099006 -0.106861
v 0.013249 0.071436 -0.097930
v 0.000043 0.044153 -0.107369
v 0.014353 0.017208 -0.098186
v 0.013310 0.043193 -0.097944
v 0.000043 0.017274 -0.107294
v 0.008887 0.180810 -0.081364
v 0.007775 0.153963 -0.083062
v 0.007954 0.126577 -0.082787
v 0.008473 0.099126 -0.081995
v 0.008051 0.071902 -0.082640
v 0.008488 0.042777 -0.081972
v 0.008534 0.017447 -0.081903
v -0.008241 0.184050 -0.082219
v -0.008117 0.209344 -0.082408
v -0.008673 0.156222 -0.081560
v -0.008531 0.127393 -0.081776
v -0.007993 0.099067 -0.082598
v -0.007766 0.071521 -0.082944
v -0.008249 0.043623 -0.082207
v -0.008369 0.016490 -0.082023
v -0.012918 0.180930 -0.097873
v -0.012644 0.153509 -0.097809
v -0.013477 0.126852 -0.098003
v -0.014267 0.099009 -0.098186
v -0.013647 0.071417 -0.098042
v -0.013355 0.044368 -0.097974
v -0.013599 0.015950 -0.098031
v 0.015297 0.183145 -0.077511
v 0.015297 0.202245 -0.077511
v 0.010400 0.200591 -0.077511
v 0.010400 0.187109 -0.077511
v 0.015297 0.202245 -0.093453
v 0.015297 0.183145 -0.093453
v 0.000000 0.202245 -0.077511
v 0.000000 0.200591 -0.077511
v 0.000000 0.183145 -0.077511
v 0.000000 0.183145 -0.093453
v 0.000000 0.202245 -0.093453
v 0.000000 0.188413 -0.050746
v 0.009212 0.188413 -0.050746
v 0.008066 0.184811 -0.023981
v 0.000000 0.184811 -0.023981
v 0.000000 0.187109 -0.077511
v 0.000000 0.180904 0.002784
v 0.005832 0.180904 0.002784
v 0.001499 0.175412 0.029549
v 0.000000 0.175412 0.029549
v 0.005832 0.184923 0.002784
v 0.000000 0.184923 0.002784
v 0.000000 0.199106 -0.050746
v 0.009212 0.199106 -0.050746
v 0.000000 0.192122 -0.023981
v 0.008066 0.192122 -0.023981
v -0.015297 0.183145 -0.077511
v -0.010400 0.187109 -0.077511
v -0.010400 0.200591 -0.077511
v -0.015297 0.202245 -0.077511
v -0.015297 0.202245 -0.093453
v -0.015297 0.183145 -0.093453
v -0.008066 0.184811 -0.023981
v -0.009212 0.188413 -0.050746
v -0.001499 0.175412 0.029549
v -0.005832 0.180904 0.002784
v -0.005832 0.184923 0.002784
v -0.009212 0.199106 -0.050746
v -0.008066 0.192122 -0.023981
v 0.015297 0.183145 -0.109395
v 0.010400 0.187109 -0.109395
v 0.010400 0.200591 -0.109395
v 0.015297 0.202245 -0.109395
v 0.000000 0.200591 -0.109395
v 0.000000 0.202245 -0.109395
v 0.000000 0.183145 -0.109395
v 0.000000 0.188413 -0.136160
v 0.000000 0.184811 -0.162925
v 0.008066 0.184811 -0.162925
v 0.009212 0.188413 -0.136160
v 0.000000 0.187109 -0.109395
v 0.000000 0.180904 -0.189690
v 0.000000 0.175412 -0.216455
v 0.001499 0.175412 -0.216455
v 0.005832 0.180904 -0.189690
v 0.005832 0.184923 -0.189690
v 0.000000 0.184923 -0.189690
v 0.009212 0.199106 -0.136160
v 0.000000 0.199106 -0.136160
v 0.008066 0.192122 -0.162925
v 0.000000 0.192122 -0.162925
v -0.015297 0.183145 -0.109395
v -0.015297 0.202245 -0.109395
v -0.010400 0.200591 -0.109395
v -0.010400 0.187109 -0.109395
v -0.009212 0.188413 -0.136160
v -0.008066 0.184811 -0.162925
v -0.005832 0.180904 -0.189690
v -0.001499 0.175412 -0.216455
v -0.005832 0.184923 -0.189690
v -0.009212 0.199106 -0.136160
v -0.008066 0.192122 -0.162925
vt 0.000000 0.000000
vt 1.000000 0.000000
vt 1.000000 1.000000
vt 0.000000 0.000000
vt 1.000000 0.000000
vt 1.000000 1.000000
vt 0.000000 0.000000
vt 1.000000 0.000000
vt 1.000000 0.000000
vt 1.000000 0.500000
vt 0.000000 0.000000
vt 1.000000 0.000000
vt 1.000000 0.500000
vt 1.000000 0.000000
vt 1.000000 0.500000
vt 0.000000 0.000000
vt 1.000000 0.000000
vt 1.000000 0.500000
vt 1.000000 0.000000
vt 1.000000 0.500000
vt 0.000000 0.000000
vt 1.000000 0.000000
vt 1.000000 0.500000
vt 0.000000 0.000000
vt 1.000000 0.000000
vt 0.000000 0.000000
vt 1.000000 0.000000
vt 1.000000 0.500000
vt 0.000000 0.000000
vt 1.000000 0.000000
vt 1.000000 0.500000
vt 0.000000 0.000000
vt 1.000000 0.000000
vt 1.000000 0.500000
vt 1.000000 0.000000
vt 1.000000 0.500000
vt 0.000000 0.000000
vt 1.000000 0.000000
vt 1.000000 0.500000
vt 0.000000 0.000000
vt 1.000000 0.500000
vt 0.000000 0.000000
vt 1.000000 0.000000
vt 1.000000 0.500000
vt 0.000000 0.000000
vt 1.000000 0.000000
vt 1.000000 0.500000
vt 0.000000 0.000000
vt 1.000000 0.000000
vt 1.000000 0.500000
vt 0.000000 0.000000
vt 1.000000 0.000000
vt 1.000000 0.500000
vt 0.000000 0.000000
vt 1.000000 0.000000
vt 1.000000 0.500000
vt 0.000000 0.000000
vt 1.000000 0.000000
vt 1.000000 0.500000
vt 0.000000 0.000000
vt 1.000000 0.000000
vt 1.000000 0.500000
vt 0.000000 0.000000
vt 1.000000 0.000000
vt 1.000000 0.500000
vt 0.000000 0.000000
vt 1.000000 0.000000
vt 1.000000 0.500000
vt 0.000000 0.000000
vt 1.000000 0.500000
vt 0.000000 0.000000
vt 1.000000 0.000000
vt 1.000000 0.500000
vt 0.000000 0.000000
vt 1.000000 0.000000
vt 1.000000 0.500000
vt 0.000000 0.000000
vt 1.000000 0.000000
vt 1.000000 0.500000
vt 0.000000 0.000000
vt 1.000000 0.000000
vt 1.000000 0.500000
vt 0.000000 0.000000
vt 1.000000 0.000000
vt 1.000000 0.500000
vt 0.000000 0.000000
vt 1.000000 0.000000
vt 1.000000 0.500000
vt 0.000000 0.000000
vt 1.000000 0.000000
vt 1.000000 0.500000
vt 0.000000 0.000000
vt 1.000000 0.000000
vt 1.000000 0.500000
vt 0.000000 0.000000
vt 1.000000 0.000000
vt 1.000000 0.500000
vt 0.000000 0.000000
vt 1.000000 0.000000
vt 1.000000 0.500000
vt 0.000000 0.000000
vt 1.000000 0.000000
vt 1.000000 0.500000
vt 0.000000 0.000000
vt 1.000000 0.000000
vt 1.000000 0.500000
vt 0.000000 0.000000
vt 1.000000 0.000000
vt 1.000000 0.500000
vt 0.000000 0.000000
vt 1.000000 0.000000
vt 1.000000 0.500000
vt 0.000000 0.000000
vt 1.000000 0.000000
vt 1.000000 0.500000
vt 0.000000 0.000000
vt 1.000000 0.000000
vt 1.000000 0.500000
vt 0.000000 0.000000
vt 1.000000 0.000000
vt 1.000000 0.500000
vt 0.000000 0.000000
vt 1.000000 0.000000
vt 1.000000 0.500000
vt 0.000000 0.000000
vt 1.000000 0.000000
vt 1.000000 0.500000
vt 1.000000 0.000000
vt 0.000000 0.000000
vt 0.000000 0.000000
vt 1.000000 0.000000
vt 1.000000 0.500000
vt 0.000000 0.000000
vt 1.000000 0.000000
vt 1.000000 0.500000
vt 1.000000 0.000000
vt 1.000000 0.000000
vt 0.000000 0.000000
vt 1.000000 0.000000
vt 1.000000 0.500000
vt 1.000000 0.500000
vt 1.000000 0.000000
vt 0.000000 0.500000
vt 1.000000 0.500000
vt 1.000000 1.000000
vt 0.000000 1.000000
vt 0.000000 0.500000
vt 1.000000 1.000000
vt 0.000000 1.000000
vt 0.000000 0.500000
vt 1.000000 0.500000
vt 1.000000 1.000000
vt 0.000000 1.000000
vt 1.000000 0.500000
vt 1.000000 1.000000
vt 0.000000 0.500000
vt 1.000000 1.000000
vt 0.000000 1.000000
vt 0.000000 0.500000
vt 1.000000 0.500000
vt 1.000000 1.000000
vt 0.000000 1.000000
vt 0.000000 0.500000
vt 1.000000 0.500000
vt 1.000000 1.000000
vt 0.000000 1.000000
vt 0.000000 0.500000
vt 1.000000 0.500000
vt 1.000000 1.000000
vt 0.000000 1.000000
vt 0.000000 0.500000
vt 1.000000 0.500000
vt 1.000000 1.000000
vt 0.000000 1.000000
vt 0.000000 0.500000
vt 1.000000 0.500000
vt 1.000000 1.000000
vt 0.000000 1.000000
vt 0.000000 0.500000
vt 1.000000 0.500000
vt 1.000000 1.000000
vt 0.000000 1.000000
vt 0.000000 0.500000
vt 1.000000 0.500000
vt 1.000000 1.000000
vt 0.000000 1.000000
vt 0.000000 0.500000
vt 1.000000 0.500000
vt 1.000000 1.000000
vt 0.000000 1.000000
vt 0.000000 0.500000
vt 1.000000 0.500000
vt 1.000000 1.000000
vt 0.000000 1.000000
vt 0.000000 0.500000
vt 1.000000 1.000000
vt 0.000000 0.500000
vt 1.000000 1.000000
vt 0.000000 0.500000
vt 1.000000 1.000000
vt 1.000000 0.500000
vt 0.000000 0.500000
vt 1.000000 0.500000
vt 1.000000 1.000000
vt 0.000000 1.000000
vt 0.000000 0.500000
vt 1.000000 0.500000
vt 1.000000 1.000000
vt 0.000000 0.500000
vt 1.000000 0.500000
vt 0.000000 1.000000
vt 0.000000 1.000000
vt 1.000000 0.500000
vt 1.000000 1.000000
vt 1.000000 0.500000
vt 1.000000 1.000000
vt 0.000000 1.000000
vt 1.000000 0.500000
vt 1.000000 1.000000
vt 0.000000 1.000000
vt 1.000000 0.500000
vt 1.000000 1.000000
vt 0.000000 1.000000
vt 1.000000 0.500000
vt 1.000000 1.000000
vt 0.000000 1.000000
vt 0.000000 0.500000
vt 1.000000 0.500000
vt 0.000000 1.000000
vt 1.000000 0.500000
vt 1.000000 1.000000
vt 0.000000 1.000000
vt 0.000000 0.500000
vt 1.000000 0.500000
vt 0.000000 1.000000
vt 0.000000 0.500000
vt 1.000000 0.500000
vt 0.000000 1.000000
vt 0.000000 0.500000
vt 1.000000 0.500000
vt 0.000000 1.000000
vt 0.000000 0.500000
vt 0.000000 0.500000
vt 1.000000 1.000000
vt 0.000000 0.500000
vt 1.000000 1.000000
vt 0.000000 1.000000
vt 0.000000 0.500000
vt 1.000000 0.500000
vt 1.000000 1.000000
vt 0.000000 1.000000
vt 1.000000 0.500000
vt 1.000000 1.000000
vt 0.000000 0.500000
vt 1.000000 0.500000
vt 1.000000 1.000000
vt 0.000000 1.000000
vt 0.000000 1.000000
vt 0.000000 0.500000
vt 0.000000 0.500000
vt 1.000000 0.500000
vt 1.000000 1.000000
vt 0.000000 1.000000
vt 0.000000 0.500000
vt 1.000000 0.500000
vt 1.000000 1.000000
vt 0.000000 1.000000
vt 0.000000 0.500000
vt 1.000000 0.500000
vt 1.000000 1.000000
vt 0.000000 1.000000
vt 0.000000 0.500000
vt 1.000000 0.500000
vt 1.000000 1.000000
vt 0.000000 1.000000
vt 0.000000 0.500000
vt 1.000000 0.500000
vt 1.000000 1.000000
vt 0.000000 1.000000
vt 0.000000 0.500000
vt 1.000000 0.500000
vt 1.000000 1.000000
vt 0.000000 1.000000
vt 0.000000 0.500000
vt 1.000000 0.500000
vt 1.000000 1.000000
vt 0.000000 1.000000
vt 0.000000 0.500000
vt 1.000000 0.500000
vt 1.000000 1.000000
vt 0.000000 1.000000
vt 0.000000 0.500000
vt 1.000000 0.500000
vt 1.000000 1.000000
vt 0.000000 1.000000
vt 0.000000 0.500000
vt 0.000000 0.500000
vt 1.000000 1.000000
vt 0.000000 0.500000
vt 1.000000 1.000000
vt 0.000000 1.000000
vt 0.000000 0.500000
vt 1.000000 0.500000
vt 1.000000 1.000000
vt 0.000000 1.000000
vt 1.000000 1.000000
vt 0.000000 1.000000
vt 0.000000 0.500000
vt 1.000000 0.500000
vt 0.000000 1.000000
vt 1.000000 0.500000
vt 1.000000 0.500000
vt 1.000000 1.000000
vt 0.000000 1.000000
vt 1.000000 0.500000
vt 1.000000 1.000000
vt 0.000000 1.000000
vt 1.000000 0.500000
vt 1.000000 1.000000
vt 0.000000 1.000000
vt 1.000000 0.500000
vt 1.000000 1.000000
vt 0.000000 1.000000
vt 0.000000 0.500000
vt 1.000000 0.500000
vt 0.000000 1.000000
vt 1.000000 0.500000
vt 1.000000 1.000000
vt 0.000000 1.000000
vt 0.000000 0.500000
vt 1.000000 0.500000
vt 0.000000 1.000000
vt 0.000000 0.500000
vt 1.000000 0.500000
vt 0.000000 1.000000
vt 0.000000 0.500000
vt 1.000000 0.500000
vt 0.000000 1.000000
vt 0.000000 0.500000
vt 1.000000 1.000000
vt 0.000000 0.500000
vt 1.000000 1.000000
vt 0.000000 0.500000
vt 1.000000 1.000000
vt 1.000000 0.500000
vn -0.1824 -0.9777 -0.1038
vn -0.1827 -0.9776 -0.1042
vn -0.1817 -0.9779 -0.1029
vn 0.1388 -0.9903 0.0081
vn -0.1808 -0.9783 -0.1016
vn -0.5879 -0.0140 -0.8088
vn -0.5879 -0.0143 -0.8088
vn -0.5879 -0.0142 -0.8088
vn -0.9493 0.0071 0.3142
vn 0.0075 0.0459 0.9989
vn 0.9487 0.0291 0.3149
vn 0.5972 0.0036 -0.8021
vn 0.5971 0.0051 -0.8021
vn -0.0232 0.9993 0.0308
vn 0.5889 0.0102 -0.8082
vn 0.5482 0.0080 -0.8363
vn 0.5827 0.0182 -0.8125
vn 0.5451 -0.0301 -0.8378
vn 0.5595 0.0522 -0.8272
vn 0.6270 -0.0342 -0.7783
vn 0.5804 0.0309 -0.8138
vn 0.5364 -0.0387 -0.8431
vn 0.9515 0.0385 0.3051
vn 0.9671 -0.0558 0.2484
vn 0.9298 0.0098 0.3680
vn 0.9298 0.0094 0.3680
vn 0.9298 0.0095 0.3680
vn 0.9233 0.0285 0.3831
vn 0.9233 0.0277 0.3830
vn 0.9234 0.0204 0.3832
vn 0.9577 -0.0216 0.2870
vn 0.9468 0.0216 0.3212
vn 0.9573 0.0025 0.2891
vn 0.9573 0.0022 0.2891
vn 0.9573 0.0023 0.2891
vn 0.9409 -0.0359 0.3368
vn 0.0059 0.0074 1.0000
vn -0.0452 0.0244 0.9987
vn 0.0900 -0.0070 0.9959
vn 0.0598 -0.0278 0.9978
vn -0.0365 -0.0129 0.9992
vn -0.0188 0.0261 0.9995
vn -0.0138 0.0232 0.9996
vn -0.0199 0.0267 0.9994
vn -0.0131 0.0063 0.9999
vn -0.0081 0.0031 1.0000
vn -0.0137 0.0068 0.9999
vn -0.0059 -0.0204 0.9998
vn -0.9298 -0.0420 0.3658
vn -0.9576 -0.0089 0.2879
vn -0.9721 0.0287 0.2328
vn -0.9721 0.0276 0.2330
vn -0.9720 0.0217 0.2340
vn -0.9565 0.0252 0.2907
vn -0.9290 -0.0165 0.3697
vn -0.9311 -0.0131 0.3644
vn -0.9275 -0.0189 0.3734
vn -0.9317 -0.0091 0.3630
vn -0.9317 -0.0095 0.3630
vn -0.9512 0.0073 0.3086
vn -0.9507 0.0064 0.3099
vn -0.9512 0.0075 0.3084
vn -0.9501 -0.0168 0.3116
vn -0.9491 -0.0187 0.3145
vn -0.9503 -0.0165 0.3110
vn -0.5368 -0.0159 -0.8436
vn -0.5613 0.0365 -0.8268
vn -0.6179 -0.0085 -0.7862
vn -0.6179 -0.0082 -0.7862
vn -0.6179 -0.0083 -0.7862
vn -0.5748 -0.0189 -0.8181
vn -0.5183 -0.0161 -0.8550
vn -0.6092 -0.0349 -0.7923
vn -0.5742 -0.0023 -0.8187
vn -0.5742 -0.0029 -0.8187
vn -0.5743 -0.0077 -0.8186
vn -0.5621 0.0053 -0.8271
vn -0.5621 0.0060 -0.8270
vn -0.5621 0.0058 -0.8270
vn -0.5626 0.0061 -0.8267
vn -0.9649 0.0412 0.2593
vn 0.0326 0.0317 0.9990
vn 0.9628 0.0041 0.2701
vn 0.5711 -0.0142 -0.8208
vn -0.0249 0.9695 0.2438
vn 0.0745 0.9913 -0.1086
vn 0.5549 -0.0157 -0.8318
vn 0.5837 0.0358 -0.8112
vn 0.5448 -0.0091 -0.8385
vn 0.5603 -0.0191 -0.8281
vn 0.6279 0.0001 -0.7783
vn 0.5792 0.0017 -0.8152
vn 0.5369 -0.0024 -0.8436
vn 0.5971 0.0052 -0.8021
vn 0.9646 0.0118 0.2635
vn 0.9298 0.0091 0.3680
vn 0.9234 0.0197 0.3833
vn 0.9573 -0.0362 0.2869
vn 0.9468 0.0001 0.3219
vn 0.9573 0.0019 0.2891
vn 0.9413 0.0347 0.3359
vn 0.9455 -0.0460 0.3223
vn -0.0422 0.0402 0.9983
vn 0.0817 -0.0663 0.9944
vn 0.0617 0.0104 0.9980
vn -0.0367 0.0281 0.9989
vn -0.0186 -0.0234 0.9996
vn -0.0129 0.0227 0.9997
vn -0.0073 0.0027 1.0000
vn 0.0247 -0.0383 0.9990
vn -0.9585 0.0068 0.2850
vn -0.9720 0.0206 0.2341
vn -0.9565 -0.0069 0.2918
vn -0.9273 -0.0284 0.3733
vn -0.9507 0.0246 0.3090
vn -0.9506 0.0063 0.3104
vn -0.9489 -0.0191 0.3151
vn -0.5680 -0.0377 -0.8222
vn -0.6179 -0.0080 -0.7862
vn -0.5724 0.0239 -0.8196
vn -0.5183 0.0203 -0.8550
vn -0.6101 0.0499 -0.7908
vn -0.5742 -0.0083 -0.8187
vn -0.5622 0.0065 -0.8270
vn -0.5878 -0.0146 -0.8088
vn 0.0000 0.0000 1.0000
vn 1.0000 0.0000 0.0000
vn 0.0000 -1.0000 0.0000
vn 0.0000 1.0000 0.0000
vn 0.0000 -0.9911 -0.1334
vn 0.0000 -0.9895 -0.1442
vn 0.0000 -0.9903 -0.1389
vn 0.0000 -0.9796 -0.2010
vn 0.0000 -0.9988 0.0487
vn 0.0000 0.9423 0.3348
vn 0.0000 -0.9895 -0.1444
vn 0.0000 0.9985 0.0554
vn 0.0000 0.9676 0.2525
vn 0.0000 0.9666 0.2561
vn 0.0000 0.9657 0.2596
vn 0.0000 0.9657 0.2597
vn 0.9871 -0.0000 0.1598
vn 0.9965 0.0000 0.0832
vn 0.9991 0.0000 0.0428
vn 0.9991 0.0000 0.0435
vn 0.9990 0.0000 0.0436
vn 0.9990 0.0000 0.0443
vn -1.0000 0.0000 0.0000
vn -0.9871 -0.0000 0.1598
vn -0.9965 -0.0000 0.0832
vn -0.9991 0.0000 0.0428
vn -0.9990 0.0000 0.0436
vn -0.9991 0.0000 0.0435
vn -0.9990 0.0000 0.0443
vn 0.0000 0.0000 -1.0000
vn 0.0000 -0.9911 0.1334
vn 0.0000 -0.9903 0.1389
vn 0.0000 -0.9895 0.1442
vn 0.0000 -0.9796 0.2010
vn 0.0000 -0.9988 -0.0487
vn 0.0000 0.9423 -0.3348
vn 0.0000 -0.9895 0.1444
vn 0.0000 0.9985 -0.0554
vn 0.0000 0.9676 -0.2525
vn 0.0000 0.9657 -0.2596
vn 0.0000 0.9666 -0.2561
vn 0.0000 0.9657 -0.2597
vn 0.9871 0.0000 -0.1598
vn 0.9965 0.0000 -0.0832
vn 0.9991 0.0000 -0.0428
vn 0.9990 0.0000 -0.0436
vn 0.9991 0.0000 -0.0435
vn 0.9990 0.0000 -0.0443
vn -0.9871 0.0000 -0.1598
vn -0.9965 0.0000 -0.0832
vn -0.9991 0.0000 -0.0428
vn -0.9991 0.0000 -0.0435
vn -0.9990 0.0000 -0.0436
vn -0.9990 0.0000 -0.0443
s 1
f 8/1/1 9/2/2 6/3/3
f 6/4/4 4/5/4 1/6/4
f 1/7/5 8/8/1 6/3/3
f 1/7/6 2/9/7 3/10/8
f 4/11/9 5/12/9 2/13/9
f 6/4/10 7/14/10 5/15/10
f 9/16/11 10/17/11 7/18/11
f 8/1/12 3/19/12 10/20/13
f 11/21/14 12/22/14 13/23/14
f 14/24/15 15/25/15 13/23/15
f 16/26/16 17/27/16 14/28/16
f 18/29/17 19/30/17 16/31/17
f 20/32/18 21/33/18 18/34/18
f 20/32/19 22/35/19 23/36/19
f 24/37/20 25/38/20 22/39/20
f 26/40/21 25/38/21 27/41/21
f 10/42/22 28/43/22 26/44/22
f 29/45/23 13/46/23 12/47/23
f 30/48/24 14/49/24 29/50/24
f 31/51/25 16/52/26 30/53/27
f 32/54/28 18/55/29 31/56/30
f 33/57/31 20/58/31 32/59/31
f 34/60/32 24/61/32 33/62/32
f 35/63/33 27/64/34 34/65/35
f 7/66/36 26/67/36 35/68/36
f 36/69/37 12/22/37 37/70/37
f 38/71/38 29/72/38 36/73/38
f 39/74/39 30/75/39 38/76/39
f 40/77/40 31/78/40 39/79/40
f 41/80/41 32/81/41 40/82/41
f 42/83/42 33/84/43 41/85/44
f 43/86/45 34/87/46 42/88/47
f 5/89/48 35/90/48 43/91/48
f 44/92/49 37/93/49 11/94/49
f 45/95/50 36/96/50 44/97/50
f 46/98/51 38/99/52 45/100/53
f 47/101/54 39/102/54 46/103/54
f 48/104/55 40/105/56 47/106/57
f 49/107/58 41/108/59 48/109/55
f 50/110/60 42/111/61 49/112/62
f 2/113/63 43/114/64 50/115/65
f 17/116/66 11/117/66 15/118/66
f 19/119/67 44/120/67 17/121/67
f 21/122/68 45/123/69 19/124/70
f 23/125/71 46/126/71 21/127/71
f 23/125/72 48/128/72 47/106/72
f 25/129/73 48/128/73 22/39/73
f 28/130/74 49/131/75 25/132/76
f 3/133/77 50/134/78 28/135/79
f 1/7/80 4/5/80 2/13/80
f 4/11/81 6/136/81 5/15/81
f 6/4/82 9/2/82 7/18/82
f 9/16/83 8/8/83 10/20/83
f 8/1/84 1/137/84 3/10/84
f 13/138/85 15/25/85 11/94/85
f 11/21/86 37/93/86 12/47/86
f 14/24/87 17/27/87 15/118/87
f 16/26/88 19/30/88 17/121/88
f 18/29/89 21/33/89 19/124/89
f 20/32/90 23/139/90 21/127/90
f 20/32/91 24/61/91 22/39/91
f 24/37/92 27/64/92 25/132/92
f 26/40/93 28/43/93 25/132/93
f 10/42/13 3/19/12 28/135/94
f 29/45/95 14/49/95 13/23/95
f 30/48/27 16/52/26 14/28/96
f 31/51/30 18/55/29 16/31/97
f 32/54/98 20/58/98 18/34/98
f 33/57/99 24/61/99 20/140/99
f 34/60/35 27/64/34 24/141/100
f 35/63/101 26/67/101 27/41/101
f 7/66/102 10/17/102 26/44/102
f 36/69/103 29/72/103 12/47/103
f 38/71/104 30/75/104 29/50/104
f 39/74/105 31/78/105 30/53/105
f 40/77/106 32/81/106 31/56/106
f 41/80/107 33/84/107 32/59/107
f 42/83/42 34/87/108 33/62/43
f 43/86/45 35/90/109 34/65/46
f 5/89/110 7/14/110 35/68/110
f 44/92/111 36/96/111 37/70/111
f 45/95/53 38/99/52 36/73/112
f 46/98/113 39/102/113 38/76/113
f 47/101/114 40/105/114 39/79/114
f 48/104/55 41/108/59 40/82/56
f 49/107/115 42/111/115 41/85/115
f 50/110/60 43/114/116 42/88/61
f 2/113/63 5/12/117 43/91/64
f 17/116/118 44/120/118 11/94/118
f 19/119/70 45/123/69 44/97/119
f 21/122/120 46/126/120 45/100/120
f 23/125/121 47/142/121 46/103/121
f 23/125/122 22/35/122 48/109/122
f 25/129/76 49/131/75 48/109/123
f 28/130/79 50/134/78 49/112/124
f 3/133/8 2/9/7 50/115/125
f 51/143/126 52/144/126 53/145/126 54/146/126
f 55/147/127 52/144/127 51/148/127 56/149/127
f 52/150/126 57/151/126 58/152/126 53/153/126
f 51/143/128 59/154/128 60/155/128 56/149/128
f 57/156/129 52/144/129 55/157/129 61/158/129
f 62/159/130 63/160/130 64/161/131 65/162/132
f 59/163/126 51/164/126 54/165/126 66/166/126
f 67/167/133 68/168/133 69/169/133 70/170/133
f 66/171/134 54/172/134 63/173/134 62/174/134
f 71/175/135 72/176/135 70/177/135 69/178/135
f 65/179/132 64/180/131 68/181/136 67/182/136
f 53/183/137 58/184/137 73/185/137 74/186/137
f 74/187/138 73/188/138 75/189/139 76/190/140
f 76/191/140 75/192/139 72/193/141 71/194/141
f 69/195/142 68/168/142 71/196/142
f 68/197/143 64/180/143 76/198/143 71/194/143
f 64/199/144 63/160/145 74/200/146 76/190/144
f 53/183/147 74/201/146 63/173/145 54/146/147
f 77/202/126 78/203/126 79/204/126 80/205/126
f 81/206/148 82/207/148 77/208/148 80/205/148
f 80/209/126 79/210/126 58/152/126 57/211/126
f 77/202/128 82/207/128 60/155/128 59/212/128
f 57/156/129 61/213/129 81/214/129 80/205/129
f 62/159/130 65/215/132 83/216/131 84/217/130
f 59/163/126 66/218/126 78/219/126 77/220/126
f 67/167/133 70/221/133 85/222/133 86/223/133
f 66/171/134 62/224/134 84/225/134 78/226/134
f 87/227/135 85/228/135 70/177/135 72/229/135
f 65/179/132 67/230/136 86/231/136 83/232/131
f 79/233/137 88/234/137 73/185/137 58/235/137
f 88/236/138 89/237/140 75/189/139 73/238/138
f 89/239/140 87/240/141 72/193/141 75/241/139
f 85/242/149 87/240/149 86/231/149
f 86/243/150 87/240/150 89/244/150 83/232/150
f 83/245/151 89/237/151 88/246/152 84/217/153
f 79/233/154 78/203/154 84/225/153 88/247/152
f 90/248/155 91/249/155 92/250/155 93/251/155
f 55/147/127 56/252/127 90/253/127 93/251/127
f 93/254/155 92/255/155 94/256/155 95/257/155
f 90/248/128 56/252/128 60/155/128 96/258/128
f 95/259/129 61/213/129 55/157/129 93/251/129
f 97/260/156 98/261/157 99/262/158 100/263/156
f 96/264/155 101/265/155 91/266/155 90/267/155
f 102/268/159 103/269/159 104/270/159 105/271/159
f 101/272/160 97/273/160 100/274/160 91/275/160
f 106/276/161 104/277/161 103/278/161 107/279/161
f 98/280/157 102/281/162 105/282/162 99/283/158
f 92/284/163 108/285/163 109/286/163 94/287/163
f 108/288/164 110/289/165 111/290/166 109/291/164
f 110/292/165 106/293/167 107/294/167 111/295/166
f 104/296/168 106/293/168 105/282/168
f 105/297/169 106/293/169 110/298/169 99/283/169
f 99/299/170 110/289/170 108/300/171 100/263/172
f 92/284/173 91/249/173 100/274/172 108/301/171
f 112/302/155 113/303/155 114/304/155 115/305/155
f 81/206/148 113/303/148 112/306/148 82/307/148
f 113/308/155 95/309/155 94/256/155 114/310/155
f 112/302/128 96/311/128 60/155/128 82/307/128
f 95/259/129 113/303/129 81/214/129 61/158/129
f 97/260/156 116/312/156 117/313/158 98/314/157
f 96/264/155 112/315/155 115/316/155 101/317/155
f 102/268/159 118/318/159 119/319/159 103/320/159
f 101/272/160 115/321/160 116/322/160 97/323/160
f 120/324/161 107/325/161 103/278/161 119/326/161
f 98/280/157 117/327/158 118/328/162 102/329/162
f 114/330/163 94/331/163 109/286/163 121/332/163
f 121/333/164 109/334/164 111/290/166 122/335/165
f 122/336/165 111/337/166 107/294/167 120/338/167
f 119/339/174 118/318/174 120/340/174
f 118/341/175 117/327/175 122/342/175 120/338/175
f 117/343/176 116/312/177 121/344/178 122/335/176
f 114/330/179 121/345/178 116/322/177 115/305/179
